# xmcd
#
# Track frame offsets: 
#        150
#        11761
#        22834
#        37476
#        49567
#        59390
#        70218
#        86081
#        100118
#        111870
#        124051
#        136532
#        148703
#        166743
#        176790
#        188424
#        201573
#        211466
#        222040
#        235076
#        248445
#        258656
#        271384
#        284084
#        292250
#        303993
#        317634
#        330454
#
# Disc length: 4560 seconds
#
# Revision: 0
# Processed by: cddbd v1.5.2PL0 Copyright (c) Steve Scherf et al.
# Submitted via: ExactAudioCopyFreeDBPlugin 1.0
#
DISCID=a511ce1c
DTITLE=Various Artist - Cold War Countdown: Country Music Goes To War
DTITLE=(1952-1972)
DYEAR=2019
DGENRE=Country
TTITLE0=Moore and Napier - God Please Protect America
TTITLE1=Grandpa Jones - I'm No Communist
TTITLE2=Johnny Freedom - Ain't I Right
TTITLE3=Doc Williams - Freedom Monkey
TTITLE4=Art and Glenda Davis - The Bearded Bandit Of Cuba
TTITLE5=Red River Dave - The Bay Of Pigs
TTITLE6=Autry Inman - Ballad Of Two Brothers
TTITLE7=Glenn Barber - Atom Bomb
TTITLE8=Wanda Jackson and The Party Timers - Little Boy Soldier
TTITLE9=Stringbean and His 5 String Banjo - Crazy Viet Nam War
TTITLE10=Mel Tillis - Ruby, Don't Take Your Love To Town
TTITLE11=Henson Cargill - Pencil Marks On The Wall
TTITLE12=Arlene Harden - Congratulations (You Sure Made A Man Out Of H
TTITLE12=im)
TTITLE13=Marie Roberson - The Patriot
TTITLE14=Jefferson County Bluegrass Boys - The Craziest War Of The Uni
TTITLE14=verse
TTITLE15=The Wilburn Brothers - The War Keeps Draggin' On
TTITLE16=Zeke Clements - Smoke On The Water (Viet Nam Version)
TTITLE17=Al Rogers and His Rocky Mountain Boys - The Hydrogen Bomb
TTITLE18=Elton Britt - Korean Mud
TTITLE19=Red River Dave - Song From The U.S.S. Pueblo
TTITLE20=Loretta Lynn - Dear Uncle Sam
TTITLE21=Smiley and Kitty Wilson - Bring Johnny Williams Home
TTITLE22=Wendell Austin and The Country Swings - The Battle Of Viet - Na
TTITLE22=m
TTITLE23=Larry Heaberlin - What About God And Country
TTITLE24=Bobby Zehn - Johnny's Not A Toy Soldier
TTITLE25=The Perry Bro's - Not Another Viet Nam
TTITLE26=Bill Martin - Our Fathers In Washington
TTITLE27=Sunshine Boys Quartet - God Please Protect America
EXTD=
EXTT0=
EXTT1=
EXTT2=
EXTT3=
EXTT4=
EXTT5=
EXTT6=
EXTT7=
EXTT8=
EXTT9=
EXTT10=
EXTT11=
EXTT12=
EXTT13=
EXTT14=
EXTT15=
EXTT16=
EXTT17=
EXTT18=
EXTT19=
EXTT20=
EXTT21=
EXTT22=
EXTT23=
EXTT24=
EXTT25=
EXTT26=
EXTT27=
PLAYORDER=
